<svg width="1920" height="160" viewBox="0 0 1920 160" fill="none" xmlns="http://www.w3.org/2000/svg">
<rect width="1920" height="160" fill="#111322"/>
<path d="M110.227 35.3516C111.216 35.3516 112.182 35.6068 113.125 36.1172C114.068 36.6224 114.802 37.349 115.328 38.2969C115.854 39.2396 116.117 40.224 116.117 41.25C116.117 42.2656 115.857 43.2422 115.336 44.1797C114.82 45.1172 114.094 45.8464 113.156 46.3672C112.224 46.8828 111.247 47.1406 110.227 47.1406C109.206 47.1406 108.227 46.8828 107.289 46.3672C106.357 45.8464 105.63 45.1172 105.109 44.1797C104.589 43.2422 104.328 42.2656 104.328 41.25C104.328 40.224 104.591 39.2396 105.117 38.2969C105.648 37.349 106.385 36.6224 107.328 36.1172C108.271 35.6068 109.237 35.3516 110.227 35.3516ZM110.227 36.3281C109.398 36.3281 108.591 36.5417 107.805 36.9688C107.023 37.3906 106.411 37.9974 105.969 38.7891C105.526 39.5755 105.305 40.3958 105.305 41.25C105.305 42.099 105.521 42.9141 105.953 43.6953C106.391 44.4714 107 45.0781 107.781 45.5156C108.562 45.9479 109.378 46.1641 110.227 46.1641C111.076 46.1641 111.891 45.9479 112.672 45.5156C113.453 45.0781 114.06 44.4714 114.492 43.6953C114.924 42.9141 115.141 42.099 115.141 41.25C115.141 40.3958 114.919 39.5755 114.477 38.7891C114.039 37.9974 113.427 37.3906 112.641 36.9688C111.854 36.5417 111.049 36.3281 110.227 36.3281ZM112.117 42.2031L113.078 42.4844C112.922 43.1354 112.589 43.6562 112.078 44.0469C111.573 44.4323 110.958 44.625 110.234 44.625C109.318 44.625 108.573 44.3281 108 43.7344C107.427 43.1406 107.141 42.3177 107.141 41.2656C107.141 40.5781 107.271 39.9818 107.531 39.4766C107.792 38.9661 108.161 38.5833 108.641 38.3281C109.125 38.0677 109.677 37.9375 110.297 37.9375C110.99 37.9375 111.565 38.1042 112.023 38.4375C112.482 38.7656 112.794 39.2135 112.961 39.7812L112.031 40.0078C111.875 39.6224 111.643 39.3281 111.336 39.125C111.034 38.9167 110.677 38.8125 110.266 38.8125C109.667 38.8125 109.172 39.026 108.781 39.4531C108.396 39.8802 108.203 40.4922 108.203 41.2891C108.203 42.0859 108.385 42.6901 108.75 43.1016C109.12 43.5078 109.596 43.7109 110.18 43.7109C110.648 43.7109 111.06 43.5755 111.414 43.3047C111.768 43.0339 112.003 42.6667 112.117 42.2031ZM122.57 43.9609L123.953 44.1406C123.802 45.0938 123.414 45.8411 122.789 46.3828C122.169 46.9193 121.406 47.1875 120.5 47.1875C119.365 47.1875 118.451 46.8177 117.758 46.0781C117.07 45.3333 116.727 44.2682 116.727 42.8828C116.727 41.987 116.875 41.2031 117.172 40.5312C117.469 39.8594 117.919 39.3568 118.523 39.0234C119.133 38.6849 119.794 38.5156 120.508 38.5156C121.409 38.5156 122.146 38.7448 122.719 39.2031C123.292 39.6562 123.659 40.3021 123.82 41.1406L122.453 41.3516C122.323 40.7943 122.091 40.375 121.758 40.0938C121.43 39.8125 121.031 39.6719 120.562 39.6719C119.854 39.6719 119.279 39.9271 118.836 40.4375C118.393 40.9427 118.172 41.7448 118.172 42.8438C118.172 43.9583 118.385 44.7682 118.812 45.2734C119.24 45.7786 119.797 46.0312 120.484 46.0312C121.036 46.0312 121.497 45.862 121.867 45.5234C122.237 45.1849 122.471 44.6641 122.57 43.9609ZM124.633 42.8516C124.633 41.3151 125.06 40.1771 125.914 39.4375C126.628 38.8229 127.497 38.5156 128.523 38.5156C129.664 38.5156 130.596 38.8906 131.32 39.6406C132.044 40.3854 132.406 41.4167 132.406 42.7344C132.406 43.8021 132.245 44.6432 131.922 45.2578C131.604 45.8672 131.138 46.3411 130.523 46.6797C129.914 47.0182 129.247 47.1875 128.523 47.1875C127.362 47.1875 126.422 46.8151 125.703 46.0703C124.99 45.3255 124.633 44.2526 124.633 42.8516ZM126.078 42.8516C126.078 43.9141 126.31 44.7109 126.773 45.2422C127.237 45.7682 127.82 46.0312 128.523 46.0312C129.221 46.0312 129.802 45.7656 130.266 45.2344C130.729 44.7031 130.961 43.8932 130.961 42.8047C130.961 41.7786 130.727 41.0026 130.258 40.4766C129.794 39.9453 129.216 39.6797 128.523 39.6797C127.82 39.6797 127.237 39.9427 126.773 40.4688C126.31 40.9948 126.078 41.7891 126.078 42.8516ZM139.445 47V45.9531C138.919 46.776 138.146 47.1875 137.125 47.1875C136.464 47.1875 135.854 47.0052 135.297 46.6406C134.745 46.276 134.315 45.7682 134.008 45.1172C133.706 44.4609 133.555 43.7083 133.555 42.8594C133.555 42.0312 133.693 41.2812 133.969 40.6094C134.245 39.9323 134.659 39.4141 135.211 39.0547C135.763 38.6953 136.38 38.5156 137.062 38.5156C137.562 38.5156 138.008 38.6224 138.398 38.8359C138.789 39.0443 139.107 39.3177 139.352 39.6562V35.5469H140.75V47H139.445ZM135 42.8594C135 43.9219 135.224 44.7161 135.672 45.2422C136.12 45.7682 136.648 46.0312 137.258 46.0312C137.872 46.0312 138.393 45.7812 138.82 45.2812C139.253 44.776 139.469 44.0078 139.469 42.9766C139.469 41.8411 139.25 41.0078 138.812 40.4766C138.375 39.9453 137.836 39.6797 137.195 39.6797C136.57 39.6797 136.047 39.9349 135.625 40.4453C135.208 40.9557 135 41.7604 135 42.8594ZM148.648 44.3281L150.102 44.5078C149.872 45.3568 149.448 46.0156 148.828 46.4844C148.208 46.9531 147.417 47.1875 146.453 47.1875C145.24 47.1875 144.276 46.8151 143.562 46.0703C142.854 45.3203 142.5 44.2708 142.5 42.9219C142.5 41.526 142.859 40.4427 143.578 39.6719C144.297 38.901 145.229 38.5156 146.375 38.5156C147.484 38.5156 148.391 38.8932 149.094 39.6484C149.797 40.4036 150.148 41.4661 150.148 42.8359C150.148 42.9193 150.146 43.0443 150.141 43.2109H143.953C144.005 44.1224 144.263 44.8203 144.727 45.3047C145.19 45.7891 145.768 46.0312 146.461 46.0312C146.977 46.0312 147.417 45.8958 147.781 45.625C148.146 45.3542 148.435 44.9219 148.648 44.3281ZM144.031 42.0547H148.664C148.602 41.3568 148.424 40.8333 148.133 40.4844C147.685 39.9427 147.104 39.6719 146.391 39.6719C145.745 39.6719 145.201 39.888 144.758 40.3203C144.32 40.7526 144.078 41.3307 144.031 42.0547ZM151.883 37.1641V35.5469H153.289V37.1641H151.883ZM151.883 47V38.7031H153.289V47H151.883ZM158.508 45.7422L158.711 46.9844C158.315 47.0677 157.961 47.1094 157.648 47.1094C157.138 47.1094 156.742 47.0286 156.461 46.8672C156.18 46.7057 155.982 46.4948 155.867 46.2344C155.753 45.9688 155.695 45.4141 155.695 44.5703V39.7969H154.664V38.7031H155.695V36.6484L157.094 35.8047V38.7031H158.508V39.7969H157.094V44.6484C157.094 45.0495 157.117 45.3073 157.164 45.4219C157.216 45.5365 157.297 45.6276 157.406 45.6953C157.521 45.763 157.682 45.7969 157.891 45.7969C158.047 45.7969 158.253 45.7786 158.508 45.7422ZM163.797 43.5625V42.1484H168.117V43.5625H163.797ZM181.125 45.6484V47H173.555C173.544 46.6615 173.599 46.3359 173.719 46.0234C173.911 45.5078 174.219 45 174.641 44.5C175.068 44 175.682 43.4219 176.484 42.7656C177.729 41.7448 178.57 40.9375 179.008 40.3438C179.445 39.7448 179.664 39.1797 179.664 38.6484C179.664 38.0911 179.464 37.6224 179.062 37.2422C178.667 36.8568 178.148 36.6641 177.508 36.6641C176.831 36.6641 176.289 36.8672 175.883 37.2734C175.477 37.6797 175.271 38.2422 175.266 38.9609L173.82 38.8125C173.919 37.7344 174.292 36.9141 174.938 36.3516C175.583 35.7839 176.451 35.5 177.539 35.5C178.638 35.5 179.508 35.8047 180.148 36.4141C180.789 37.0234 181.109 37.7786 181.109 38.6797C181.109 39.138 181.016 39.5885 180.828 40.0312C180.641 40.474 180.328 40.9401 179.891 41.4297C179.458 41.9193 178.737 42.5911 177.727 43.4453C176.883 44.1536 176.341 44.6354 176.102 44.8906C175.862 45.1406 175.664 45.3932 175.508 45.6484H181.125ZM182.641 41.3516C182.641 39.9974 182.779 38.9089 183.055 38.0859C183.336 37.2578 183.75 36.6198 184.297 36.1719C184.849 35.724 185.542 35.5 186.375 35.5C186.99 35.5 187.529 35.625 187.992 35.875C188.456 36.1198 188.839 36.4766 189.141 36.9453C189.443 37.4089 189.68 37.9766 189.852 38.6484C190.023 39.3151 190.109 40.2161 190.109 41.3516C190.109 42.6953 189.971 43.7812 189.695 44.6094C189.419 45.4323 189.005 46.0703 188.453 46.5234C187.906 46.9714 187.214 47.1953 186.375 47.1953C185.271 47.1953 184.404 46.7995 183.773 46.0078C183.018 45.0547 182.641 43.5026 182.641 41.3516ZM184.086 41.3516C184.086 43.2318 184.305 44.4844 184.742 45.1094C185.185 45.7292 185.729 46.0391 186.375 46.0391C187.021 46.0391 187.562 45.7266 188 45.1016C188.443 44.4766 188.664 43.2266 188.664 41.3516C188.664 39.4661 188.443 38.2135 188 37.5938C187.562 36.974 187.016 36.6641 186.359 36.6641C185.714 36.6641 185.198 36.9375 184.812 37.4844C184.328 38.1823 184.086 39.4714 184.086 41.3516ZM198.938 45.6484V47H191.367C191.357 46.6615 191.411 46.3359 191.531 46.0234C191.724 45.5078 192.031 45 192.453 44.5C192.88 44 193.495 43.4219 194.297 42.7656C195.542 41.7448 196.383 40.9375 196.82 40.3438C197.258 39.7448 197.477 39.1797 197.477 38.6484C197.477 38.0911 197.276 37.6224 196.875 37.2422C196.479 36.8568 195.961 36.6641 195.32 36.6641C194.643 36.6641 194.102 36.8672 193.695 37.2734C193.289 37.6797 193.083 38.2422 193.078 38.9609L191.633 38.8125C191.732 37.7344 192.104 36.9141 192.75 36.3516C193.396 35.7839 194.263 35.5 195.352 35.5C196.451 35.5 197.32 35.8047 197.961 36.4141C198.602 37.0234 198.922 37.7786 198.922 38.6797C198.922 39.138 198.828 39.5885 198.641 40.0312C198.453 40.474 198.141 40.9401 197.703 41.4297C197.271 41.9193 196.549 42.5911 195.539 43.4453C194.695 44.1536 194.154 44.6354 193.914 44.8906C193.674 45.1406 193.477 45.3932 193.32 45.6484H198.938ZM200.461 43.9766L201.867 43.7891C202.029 44.5859 202.302 45.1615 202.688 45.5156C203.078 45.8646 203.552 46.0391 204.109 46.0391C204.771 46.0391 205.328 45.8099 205.781 45.3516C206.24 44.8932 206.469 44.3255 206.469 43.6484C206.469 43.0026 206.258 42.4714 205.836 42.0547C205.414 41.6328 204.878 41.4219 204.227 41.4219C203.961 41.4219 203.63 41.474 203.234 41.5781L203.391 40.3438C203.484 40.3542 203.56 40.3594 203.617 40.3594C204.216 40.3594 204.755 40.2031 205.234 39.8906C205.714 39.5781 205.953 39.0964 205.953 38.4453C205.953 37.9297 205.779 37.5026 205.43 37.1641C205.081 36.8255 204.63 36.6562 204.078 36.6562C203.531 36.6562 203.076 36.8281 202.711 37.1719C202.346 37.5156 202.112 38.0312 202.008 38.7188L200.602 38.4688C200.773 37.526 201.164 36.7969 201.773 36.2812C202.383 35.7604 203.141 35.5 204.047 35.5C204.672 35.5 205.247 35.6354 205.773 35.9062C206.299 36.1719 206.701 36.5365 206.977 37C207.258 37.4635 207.398 37.9557 207.398 38.4766C207.398 38.9714 207.266 39.4219 207 39.8281C206.734 40.2344 206.341 40.5573 205.82 40.7969C206.497 40.9531 207.023 41.2786 207.398 41.7734C207.773 42.263 207.961 42.8776 207.961 43.6172C207.961 44.6172 207.596 45.4661 206.867 46.1641C206.138 46.8568 205.216 47.2031 204.102 47.2031C203.096 47.2031 202.26 46.9036 201.594 46.3047C200.932 45.7057 200.555 44.9297 200.461 43.9766Z" fill="#676767"/>
<path d="M865.179 47V35.5469H869.499C870.259 35.5469 870.84 35.5833 871.241 35.6562C871.804 35.75 872.275 35.9297 872.655 36.1953C873.035 36.4557 873.34 36.8229 873.569 37.2969C873.804 37.7708 873.921 38.2917 873.921 38.8594C873.921 39.8333 873.611 40.6589 872.991 41.3359C872.371 42.0078 871.252 42.3438 869.632 42.3438H866.694V47H865.179ZM866.694 40.9922H869.655C870.634 40.9922 871.33 40.8099 871.741 40.4453C872.153 40.0807 872.358 39.5677 872.358 38.9062C872.358 38.4271 872.236 38.0182 871.991 37.6797C871.752 37.3359 871.434 37.1094 871.038 37C870.783 36.9323 870.312 36.8984 869.624 36.8984H866.694V40.9922ZM875.655 47V38.7031H876.921V39.9609C877.244 39.3724 877.541 38.9844 877.812 38.7969C878.088 38.6094 878.39 38.5156 878.718 38.5156C879.192 38.5156 879.674 38.6667 880.163 38.9688L879.679 40.2734C879.335 40.0703 878.991 39.9688 878.647 39.9688C878.34 39.9688 878.064 40.0625 877.819 40.25C877.575 40.4323 877.4 40.6875 877.296 41.0156C877.14 41.5156 877.062 42.0625 877.062 42.6562V47H875.655ZM881.007 37.1641V35.5469H882.413V37.1641H881.007ZM881.007 47V38.7031H882.413V47H881.007ZM886.866 47L883.71 38.7031H885.194L886.976 43.6719C887.168 44.2083 887.345 44.7656 887.507 45.3438C887.632 44.9062 887.806 44.3802 888.03 43.7656L889.874 38.7031H891.319L888.179 47H886.866ZM897.976 45.9766C897.455 46.4193 896.952 46.7318 896.468 46.9141C895.989 47.0964 895.473 47.1875 894.921 47.1875C894.009 47.1875 893.309 46.9661 892.819 46.5234C892.33 46.0755 892.085 45.5052 892.085 44.8125C892.085 44.4062 892.176 44.0365 892.358 43.7031C892.546 43.3646 892.788 43.0938 893.085 42.8906C893.387 42.6875 893.726 42.5339 894.101 42.4297C894.377 42.3568 894.793 42.2865 895.351 42.2188C896.486 42.0833 897.322 41.9219 897.858 41.7344C897.864 41.5417 897.866 41.4193 897.866 41.3672C897.866 40.7943 897.733 40.3906 897.468 40.1562C897.108 39.8385 896.575 39.6797 895.866 39.6797C895.205 39.6797 894.715 39.7969 894.397 40.0312C894.085 40.2604 893.853 40.6693 893.702 41.2578L892.327 41.0703C892.452 40.4818 892.658 40.0078 892.944 39.6484C893.231 39.2839 893.645 39.0052 894.187 38.8125C894.728 38.6146 895.356 38.5156 896.069 38.5156C896.778 38.5156 897.353 38.599 897.796 38.7656C898.239 38.9323 898.564 39.1432 898.772 39.3984C898.981 39.6484 899.127 39.9661 899.21 40.3516C899.257 40.5911 899.28 41.0234 899.28 41.6484V43.5234C899.28 44.8307 899.309 45.6589 899.366 46.0078C899.429 46.3516 899.549 46.6823 899.726 47H898.257C898.111 46.7083 898.017 46.3672 897.976 45.9766ZM897.858 42.8359C897.348 43.0443 896.582 43.2214 895.562 43.3672C894.983 43.4505 894.575 43.5443 894.335 43.6484C894.095 43.7526 893.91 43.9062 893.78 44.1094C893.65 44.3073 893.585 44.5286 893.585 44.7734C893.585 45.1484 893.726 45.4609 894.007 45.7109C894.293 45.9609 894.71 46.0859 895.257 46.0859C895.799 46.0859 896.28 45.9688 896.702 45.7344C897.124 45.4948 897.434 45.1693 897.632 44.7578C897.783 44.4401 897.858 43.9714 897.858 43.3516V42.8359ZM906.882 43.9609L908.265 44.1406C908.114 45.0938 907.726 45.8411 907.101 46.3828C906.481 46.9193 905.718 47.1875 904.812 47.1875C903.676 47.1875 902.762 46.8177 902.069 46.0781C901.382 45.3333 901.038 44.2682 901.038 42.8828C901.038 41.987 901.187 41.2031 901.483 40.5312C901.78 39.8594 902.231 39.3568 902.835 39.0234C903.444 38.6849 904.106 38.5156 904.819 38.5156C905.72 38.5156 906.457 38.7448 907.03 39.2031C907.603 39.6562 907.97 40.3021 908.132 41.1406L906.765 41.3516C906.634 40.7943 906.403 40.375 906.069 40.0938C905.741 39.8125 905.343 39.6719 904.874 39.6719C904.166 39.6719 903.59 39.9271 903.147 40.4375C902.705 40.9427 902.483 41.7448 902.483 42.8438C902.483 43.9583 902.697 44.7682 903.124 45.2734C903.551 45.7786 904.108 46.0312 904.796 46.0312C905.348 46.0312 905.809 45.862 906.179 45.5234C906.549 45.1849 906.783 44.6641 906.882 43.9609ZM909.405 50.1953L909.249 48.875C909.556 48.9583 909.825 49 910.054 49C910.366 49 910.616 48.9479 910.804 48.8438C910.991 48.7396 911.145 48.5938 911.265 48.4062C911.353 48.2656 911.496 47.9167 911.694 47.3594C911.72 47.2812 911.762 47.1667 911.819 47.0156L908.671 38.7031H910.187L911.913 43.5078C912.137 44.1172 912.338 44.7578 912.515 45.4297C912.676 44.7839 912.869 44.1536 913.093 43.5391L914.866 38.7031H916.272L913.116 47.1406C912.778 48.0521 912.515 48.6797 912.327 49.0234C912.077 49.487 911.791 49.8255 911.468 50.0391C911.145 50.2578 910.759 50.3672 910.312 50.3672C910.041 50.3672 909.739 50.3099 909.405 50.1953ZM922.101 47V35.5469H926.421C927.181 35.5469 927.762 35.5833 928.163 35.6562C928.726 35.75 929.197 35.9297 929.577 36.1953C929.957 36.4557 930.262 36.8229 930.491 37.2969C930.726 37.7708 930.843 38.2917 930.843 38.8594C930.843 39.8333 930.533 40.6589 929.913 41.3359C929.293 42.0078 928.174 42.3438 926.554 42.3438H923.616V47H922.101ZM923.616 40.9922H926.577C927.556 40.9922 928.252 40.8099 928.663 40.4453C929.075 40.0807 929.28 39.5677 929.28 38.9062C929.28 38.4271 929.158 38.0182 928.913 37.6797C928.674 37.3359 928.356 37.1094 927.96 37C927.705 36.9323 927.233 36.8984 926.546 36.8984H923.616V40.9922ZM932.069 42.8516C932.069 41.3151 932.496 40.1771 933.351 39.4375C934.064 38.8229 934.934 38.5156 935.96 38.5156C937.101 38.5156 938.033 38.8906 938.757 39.6406C939.481 40.3854 939.843 41.4167 939.843 42.7344C939.843 43.8021 939.681 44.6432 939.358 45.2578C939.041 45.8672 938.575 46.3411 937.96 46.6797C937.351 47.0182 936.684 47.1875 935.96 47.1875C934.799 47.1875 933.858 46.8151 933.14 46.0703C932.426 45.3255 932.069 44.2526 932.069 42.8516ZM933.515 42.8516C933.515 43.9141 933.746 44.7109 934.21 45.2422C934.674 45.7682 935.257 46.0312 935.96 46.0312C936.658 46.0312 937.239 45.7656 937.702 45.2344C938.166 44.7031 938.397 43.8932 938.397 42.8047C938.397 41.7786 938.163 41.0026 937.694 40.4766C937.231 39.9453 936.653 39.6797 935.96 39.6797C935.257 39.6797 934.674 39.9427 934.21 40.4688C933.746 40.9948 933.515 41.7891 933.515 42.8516ZM941.468 47V35.5469H942.874V47H941.468ZM945.069 37.1641V35.5469H946.476V37.1641H945.069ZM945.069 47V38.7031H946.476V47H945.069ZM954.038 43.9609L955.421 44.1406C955.27 45.0938 954.882 45.8411 954.257 46.3828C953.637 46.9193 952.874 47.1875 951.968 47.1875C950.832 47.1875 949.918 46.8177 949.226 46.0781C948.538 45.3333 948.194 44.2682 948.194 42.8828C948.194 41.987 948.343 41.2031 948.64 40.5312C948.937 39.8594 949.387 39.3568 949.991 39.0234C950.601 38.6849 951.262 38.5156 951.976 38.5156C952.877 38.5156 953.614 38.7448 954.187 39.2031C954.759 39.6562 955.127 40.3021 955.288 41.1406L953.921 41.3516C953.791 40.7943 953.559 40.375 953.226 40.0938C952.897 39.8125 952.499 39.6719 952.03 39.6719C951.322 39.6719 950.746 39.9271 950.304 40.4375C949.861 40.9427 949.64 41.7448 949.64 42.8438C949.64 43.9583 949.853 44.7682 950.28 45.2734C950.707 45.7786 951.265 46.0312 951.952 46.0312C952.504 46.0312 952.965 45.862 953.335 45.5234C953.705 45.1849 953.939 44.6641 954.038 43.9609ZM956.562 50.1953L956.405 48.875C956.713 48.9583 956.981 49 957.21 49C957.522 49 957.772 48.9479 957.96 48.8438C958.147 48.7396 958.301 48.5938 958.421 48.4062C958.509 48.2656 958.653 47.9167 958.851 47.3594C958.877 47.2812 958.918 47.1667 958.976 47.0156L955.827 38.7031H957.343L959.069 43.5078C959.293 44.1172 959.494 44.7578 959.671 45.4297C959.832 44.7839 960.025 44.1536 960.249 43.5391L962.022 38.7031H963.429L960.272 47.1406C959.934 48.0521 959.671 48.6797 959.483 49.0234C959.233 49.487 958.947 49.8255 958.624 50.0391C958.301 50.2578 957.916 50.3672 957.468 50.3672C957.197 50.3672 956.895 50.3099 956.562 50.1953Z" fill="#CFCFCF"/>
<path d="M995.257 47V35.5469H1002.98V36.8984H996.772V40.4453H1002.15V41.7969H996.772V47H995.257ZM1002.81 47L1007.21 35.5469H1008.84L1013.53 47H1011.8L1010.47 43.5312H1005.68L1004.42 47H1002.81ZM1006.12 42.2969H1010L1008.8 39.125C1008.44 38.1615 1008.17 37.3698 1007.99 36.75C1007.85 37.4844 1007.64 38.2135 1007.37 38.9375L1006.12 42.2969ZM1023.42 45.7734C1024.12 46.2578 1024.77 46.612 1025.37 46.8359L1024.92 47.8906C1024.1 47.5938 1023.28 47.125 1022.46 46.4844C1021.61 46.9583 1020.67 47.1953 1019.65 47.1953C1018.61 47.1953 1017.67 46.9453 1016.83 46.4453C1015.98 45.9453 1015.33 45.2422 1014.87 44.3359C1014.42 43.4297 1014.19 42.4089 1014.19 41.2734C1014.19 40.1432 1014.42 39.1146 1014.88 38.1875C1015.34 37.2604 1015.99 36.5547 1016.83 36.0703C1017.68 35.5859 1018.63 35.3438 1019.68 35.3438C1020.74 35.3438 1021.69 35.5964 1022.54 36.1016C1023.39 36.6016 1024.03 37.3047 1024.48 38.2109C1024.92 39.112 1025.15 40.1302 1025.15 41.2656C1025.15 42.2083 1025 43.0573 1024.72 43.8125C1024.43 44.5625 1024 45.2161 1023.42 45.7734ZM1020.08 43.8359C1020.96 44.0807 1021.68 44.4453 1022.25 44.9297C1023.14 44.1172 1023.58 42.8958 1023.58 41.2656C1023.58 40.3385 1023.43 39.5286 1023.11 38.8359C1022.8 38.1432 1022.33 37.6068 1021.73 37.2266C1021.12 36.8411 1020.44 36.6484 1019.69 36.6484C1018.56 36.6484 1017.62 37.0365 1016.87 37.8125C1016.13 38.5833 1015.76 39.737 1015.76 41.2734C1015.76 42.763 1016.12 43.9062 1016.86 44.7031C1017.6 45.5 1018.54 45.8984 1019.69 45.8984C1020.23 45.8984 1020.74 45.7969 1021.22 45.5938C1020.74 45.2865 1020.24 45.0677 1019.72 44.9375L1020.08 43.8359Z" fill="#CFCFCF"/>
<path fill-rule="evenodd" clip-rule="evenodd" d="M1701 41.9038C1701 46.3783 1704.25 50.099 1708.5 50.8535V44.3533H1706.25V41.8535H1708.5V39.8533C1708.5 37.6033 1709.95 36.3538 1712 36.3538C1712.65 36.3538 1713.35 36.4535 1714 36.5533V38.8535H1712.85C1711.75 38.8535 1711.5 39.4033 1711.5 40.1038V41.8535H1713.9L1713.5 44.3533H1711.5V50.8535C1715.75 50.099 1719 46.379 1719 41.9038C1719 36.926 1714.95 32.8535 1710 32.8535C1705.05 32.8535 1701 36.926 1701 41.9038Z" fill="white"/>
<path d="M1751.7 36.1137C1751.01 36.422 1750.26 36.6303 1749.47 36.7245C1750.28 36.2393 1750.89 35.4757 1751.18 34.5762C1750.42 35.0287 1749.58 35.3472 1748.72 35.5178C1748.13 34.8935 1747.36 34.4798 1746.51 34.3407C1745.67 34.2017 1744.8 34.3452 1744.05 34.7489C1743.29 35.1526 1742.69 35.794 1742.34 36.5734C1741.99 37.3529 1741.91 38.2268 1742.1 39.0595C1740.56 38.982 1739.05 38.5808 1737.67 37.8819C1736.29 37.183 1735.07 36.2021 1734.1 35.0028C1733.77 35.5778 1733.57 36.2445 1733.57 36.9545C1733.57 37.5937 1733.73 38.223 1734.03 38.7868C1734.33 39.3505 1734.77 39.8312 1735.3 40.1862C1734.68 40.1665 1734.08 40 1733.54 39.7003V39.7503C1733.54 40.6468 1733.85 41.5156 1734.42 42.2095C1734.99 42.9033 1735.78 43.3794 1736.66 43.557C1736.08 43.7118 1735.48 43.7346 1734.9 43.6237C1735.15 44.395 1735.63 45.0695 1736.28 45.5528C1736.93 46.036 1737.72 46.3038 1738.53 46.3187C1737.15 47.3982 1735.46 47.9837 1733.71 47.9812C1733.4 47.9812 1733.09 47.9632 1732.78 47.927C1734.56 49.068 1736.62 49.6735 1738.73 49.6712C1745.87 49.6712 1749.78 43.7562 1749.78 38.6262C1749.78 38.4595 1749.77 38.2912 1749.77 38.1245C1750.52 37.5753 1751.18 36.8952 1751.7 36.1162L1751.7 36.1137Z" fill="white"/>
<g clip-path="url(#clip0_3_872)">
<path d="M1783.58 37.4214C1783.47 37.0174 1783.25 36.6517 1782.94 36.3631C1782.63 36.0656 1782.25 35.8528 1781.83 35.7448C1780.26 35.3323 1773.99 35.3323 1773.99 35.3323C1771.38 35.3025 1768.77 35.4333 1766.17 35.7239C1765.75 35.8399 1765.37 36.0575 1765.05 36.3573C1764.75 36.6539 1764.52 37.0198 1764.41 37.4206C1764.13 38.9304 1763.99 40.4634 1764 41.9989C1763.99 43.5331 1764.13 45.0656 1764.41 46.5773C1764.52 46.9764 1764.74 47.3406 1765.05 47.6348C1765.36 47.9289 1765.75 48.1414 1766.17 48.2539C1767.76 48.6656 1773.99 48.6656 1773.99 48.6656C1776.61 48.6954 1779.23 48.5646 1781.83 48.2739C1782.25 48.1659 1782.63 47.9531 1782.94 47.6556C1783.25 47.367 1783.47 47.0012 1783.58 46.5973C1783.87 45.0881 1784.01 43.5544 1784 42.0181C1784.02 40.4753 1783.88 38.9344 1783.58 37.4206V37.4214ZM1772 44.8523V39.1464L1777.22 41.9998L1772 44.8523Z" fill="white"/>
</g>
<path d="M1805.5 39.519C1803.94 39.519 1802.66 40.7927 1802.66 42.3535C1802.66 43.9143 1803.94 45.1881 1805.5 45.1881C1807.06 45.1881 1808.33 43.9143 1808.33 42.3535C1808.33 40.7927 1807.06 39.519 1805.5 39.519ZM1814 42.3535C1814 41.1797 1814.01 40.0166 1813.94 38.8449C1813.88 37.484 1813.57 36.2762 1812.57 35.281C1811.58 34.2837 1810.37 33.9754 1809.01 33.9094C1807.83 33.8435 1806.67 33.8541 1805.5 33.8541C1804.33 33.8541 1803.16 33.8435 1801.99 33.9094C1800.63 33.9754 1799.42 34.2858 1798.43 35.281C1797.43 36.2783 1797.12 37.484 1797.06 38.8449C1796.99 40.0187 1797 41.1818 1797 42.3535C1797 43.5252 1796.99 44.6905 1797.06 45.8621C1797.12 47.2231 1797.43 48.4309 1798.43 49.426C1799.42 50.4233 1800.63 50.7317 1801.99 50.7976C1803.17 50.8635 1804.33 50.8529 1805.5 50.8529C1806.67 50.8529 1807.84 50.8635 1809.01 50.7976C1810.37 50.7317 1811.58 50.4212 1812.57 49.426C1813.57 48.4287 1813.88 47.2231 1813.94 45.8621C1814.01 44.6905 1814 43.5273 1814 42.3535ZM1805.5 46.7148C1803.08 46.7148 1801.14 44.767 1801.14 42.3535C1801.14 39.94 1803.08 37.9922 1805.5 37.9922C1807.91 37.9922 1809.86 39.94 1809.86 42.3535C1809.86 44.767 1807.91 46.7148 1805.5 46.7148ZM1810.04 38.8321C1809.47 38.8321 1809.02 38.3771 1809.02 37.8136C1809.02 37.2501 1809.47 36.795 1810.04 36.795C1810.6 36.795 1811.06 37.2501 1811.06 37.8136C1811.06 37.9474 1811.03 38.0799 1810.98 38.2036C1810.93 38.3272 1810.85 38.4396 1810.76 38.5342C1810.66 38.6288 1810.55 38.7038 1810.43 38.7549C1810.3 38.8061 1810.17 38.8323 1810.04 38.8321Z" fill="white"/>
<defs>
<clipPath id="clip0_3_872">
<rect width="20" height="20" fill="white" transform="translate(1764 32)"/>
</clipPath>
</defs>
</svg>
