<svg width="28" height="28" viewBox="0 0 28 28" fill="none" xmlns="http://www.w3.org/2000/svg">
<g id="share" clip-path="url(#clip0_2_136)">
<path id="Vector" d="M21 18.7607C20.1133 18.7607 19.32 19.1107 18.7133 19.659L10.395 14.8173C10.4533 14.549 10.5 14.2807 10.5 14.0007C10.5 13.7207 10.4533 13.4523 10.395 13.184L18.62 8.38898C19.25 8.97232 20.0783 9.33398 21 9.33398C22.9367 9.33398 24.5 7.77065 24.5 5.83398C24.5 3.89732 22.9367 2.33398 21 2.33398C19.0633 2.33398 17.5 3.89732 17.5 5.83398C17.5 6.11398 17.5467 6.38232 17.605 6.65065L9.38 11.4457C8.75 10.8623 7.92167 10.5007 7 10.5007C5.06333 10.5007 3.5 12.064 3.5 14.0007C3.5 15.9373 5.06333 17.5007 7 17.5007C7.92167 17.5007 8.75 17.139 9.38 16.5557L17.6867 21.409C17.6283 21.654 17.5933 21.9107 17.5933 22.1673C17.5933 24.0457 19.1217 25.574 21 25.574C22.8783 25.574 24.4067 24.0457 24.4067 22.1673C24.4067 20.289 22.8783 18.7607 21 18.7607Z" fill="white"/>
</g>
<defs>
<clipPath id="clip0_2_136">
<rect width="28" height="28" fill="white"/>
</clipPath>
</defs>
</svg>
