<svg width="350" height="53" viewBox="0 0 350 53" fill="none" xmlns="http://www.w3.org/2000/svg">
<rect width="350" height="53" rx="8" fill="url(#paint0_linear_3_1440)"/>
<path d="M139.764 18.6914V28.377H137.795V18.6914H139.764ZM134.666 19.6406V24.2988H129.287V26.0039C132.012 25.9951 133.937 25.9072 136.213 25.5645L136.459 27.1289C133.945 27.5332 131.801 27.6035 128.725 27.6035H127.371V22.8398H132.732V21.2402H127.336V19.6406H134.666ZM134.42 28.6582C137.795 28.6582 139.852 29.7305 139.852 31.6113C139.852 33.457 137.795 34.5469 134.42 34.5469C131.027 34.5469 128.988 33.457 128.988 31.6113C128.988 29.7305 131.027 28.6582 134.42 28.6582ZM134.42 30.1875C132.17 30.1875 130.922 30.6797 130.922 31.6113C130.922 32.5254 132.17 33.0176 134.42 33.0176C136.652 33.0176 137.9 32.5254 137.9 31.6113C137.9 30.6797 136.652 30.1875 134.42 30.1875ZM154.969 20.1504V22.0488C154.969 24.3516 154.969 26.5488 154.266 29.9062L152.314 29.7305C152.64 28.3418 152.824 27.1201 152.93 25.9863L143.561 26.4785L143.297 24.8965L153.018 24.5273C153.053 23.6748 153.053 22.8574 153.053 22.0488V21.7324H143.771V20.1504H154.969ZM156.568 30.9434V32.543H142.084V30.9434H156.568ZM176.396 28.2188V29.8184H170.104V34.582H168.17V29.8184H161.912V28.2188H176.396ZM175.043 20.5547V22.1016H170.139C170.323 23.6748 172.389 25.3184 175.57 25.7051L174.85 27.252C172.222 26.918 170.183 25.7578 169.154 24.2285C168.108 25.7754 166.052 26.918 163.406 27.252L162.703 25.7051C165.876 25.3184 167.959 23.7012 168.152 22.1016H163.248V20.5547H168.17V18.6914H170.104V20.5547H175.043ZM189.914 18.6738V24.8789H192.27V26.5137H189.914V34.5293H187.963V18.6738H189.914ZM185.713 20.3262C185.713 25.002 183.779 29.0977 178.488 31.6992L177.381 30.1875C181.248 28.2627 183.34 25.5557 183.744 21.9434H178.242V20.3262H185.713ZM205.471 18.6738V25.002H207.914V26.6191H205.471V34.5645H203.537V18.6738H205.471ZM202.307 21.1172V22.6816H192.938V21.1172H196.699V18.9023H198.65V21.1172H202.307ZM197.684 23.7188C199.969 23.7188 201.674 25.2656 201.674 27.4629C201.674 29.6602 199.969 31.1895 197.684 31.1895C195.363 31.1895 193.658 29.6602 193.676 27.4629C193.658 25.2656 195.363 23.7188 197.684 23.7188ZM197.684 25.3184C196.436 25.3184 195.539 26.1621 195.539 27.4629C195.539 28.7637 196.436 29.5898 197.684 29.5723C198.896 29.5898 199.793 28.7637 199.811 27.4629C199.793 26.1621 198.896 25.3184 197.684 25.3184ZM221.854 18.6738V34.5645H219.885V18.6738H221.854ZM217.107 20.3613C217.107 25.0898 215.279 29.1152 209.707 31.752L208.688 30.1875C212.845 28.21 214.778 25.5205 215.121 21.9082H209.496V20.3613H217.107Z" fill="#F5F5F5"/>
<defs>
<linearGradient id="paint0_linear_3_1440" x1="0.437511" y1="-5.4995e-05" x2="357.96" y2="40.7373" gradientUnits="userSpaceOnUse">
<stop stop-color="#6D6AFE"/>
<stop offset="1" stop-color="#6AE3FE"/>
</linearGradient>
</defs>
</svg>
