<svg width="128" height="53" viewBox="0 0 128 53" fill="none" xmlns="http://www.w3.org/2000/svg">
<rect width="128" height="53" rx="8" fill="url(#paint0_linear_3_2058)"/>
<path d="M55.5469 31.1016V32.7188H41.0273V31.1016H47.2852V28.5176H42.75V23.3145H51.8906V21.3457H42.7148V19.7637H53.8242V24.8613H44.7012V26.918H54.1934V28.5176H49.2188V31.1016H55.5469ZM69.2227 20.2207V22.0137C69.2227 24.1406 69.2227 26.3379 68.6426 29.6777L66.6562 29.502C67.2715 26.373 67.2715 24.0703 67.2715 22.0137V21.8027H58.1133V20.2207H69.2227ZM71.0684 30.7852V32.3848H56.584V30.7852H71.0684ZM85.377 18.6914V30.1699H83.4082V18.6914H85.377ZM85.8164 32.666V34.248H74.8652V29.0098H76.834V32.666H85.8164ZM76.7109 19.7285C79.1191 19.7285 80.9824 21.3984 80.9824 23.7012C80.9824 26.0566 79.1191 27.6914 76.7109 27.6914C74.2852 27.6914 72.4219 26.0566 72.4219 23.7012C72.4219 21.3984 74.2852 19.7285 76.7109 19.7285ZM76.7109 21.4336C75.3574 21.4336 74.3203 22.3301 74.3379 23.7012C74.3203 25.1074 75.3574 25.9863 76.7109 25.9863C78.0293 25.9863 79.0664 25.1074 79.0664 23.7012C79.0664 22.3301 78.0293 21.4336 76.7109 21.4336Z" fill="#F5F5F5"/>
<defs>
<linearGradient id="paint0_linear_3_2058" x1="0.160004" y1="-5.4995e-05" x2="132.379" y2="5.50961" gradientUnits="userSpaceOnUse">
<stop stop-color="#6D6AFE"/>
<stop offset="1" stop-color="#6AE3FE"/>
</linearGradient>
</defs>
</svg>
